<mxfile host="Electron" agent="Mozilla/5.0 (Windows NT 10.0; Win64; x64) AppleWebKit/537.36 (KHTML, like Gecko) draw.io/28.1.2 Chrome/138.0.7204.243 Electron/37.4.0 Safari/537.36" version="28.1.2">
  <diagram name="หน้า-1" id="kx2oL88IFSOmrlaejQWX">
    <mxGraphModel dx="906" dy="544" grid="1" gridSize="10" guides="1" tooltips="1" connect="1" arrows="1" fold="1" page="1" pageScale="1" pageWidth="827" pageHeight="1169" math="0" shadow="0">
      <root>
        <mxCell id="0" />
        <mxCell id="1" parent="0" />
        <mxCell id="sAu2E2ja9TYU6doFKG8g-1" value="Start" style="ellipse;whiteSpace=wrap;html=1;" vertex="1" parent="1">
          <mxGeometry x="353" y="30" width="120" height="60" as="geometry" />
        </mxCell>
        <mxCell id="sAu2E2ja9TYU6doFKG8g-2" value="แสดงข้อความ &quot;User Input :&quot;" style="parallelogram;whiteSpace=wrap;html=1;" vertex="1" parent="1">
          <mxGeometry x="333" y="130" width="160" height="60" as="geometry" />
        </mxCell>
        <mxCell id="sAu2E2ja9TYU6doFKG8g-3" value="รับค่าตัวเลขจากผู้ใช้ (num)" style="parallelogram;whiteSpace=wrap;html=1;" vertex="1" parent="1">
          <mxGeometry x="333" y="230" width="160" height="60" as="geometry" />
        </mxCell>
        <mxCell id="sAu2E2ja9TYU6doFKG8g-4" value="อ่านค่าตัวเลขสำเร็จหรือไม่ ?" style="rhombus;whiteSpace=wrap;html=1;" vertex="1" parent="1">
          <mxGeometry x="323" y="330" width="180" height="100" as="geometry" />
        </mxCell>
        <mxCell id="sAu2E2ja9TYU6doFKG8g-5" value="แสดงข้อความ &quot;Please enter a number only.&quot;" style="parallelogram;whiteSpace=wrap;html=1;" vertex="1" parent="1">
          <mxGeometry x="103" y="470" width="220" height="60" as="geometry" />
        </mxCell>
        <mxCell id="sAu2E2ja9TYU6doFKG8g-6" value="Stop" style="ellipse;whiteSpace=wrap;html=1;" vertex="1" parent="1">
          <mxGeometry x="153" y="570" width="120" height="60" as="geometry" />
        </mxCell>
        <mxCell id="sAu2E2ja9TYU6doFKG8g-7" value="แสดงข้อความ &quot;Result :&quot;" style="parallelogram;whiteSpace=wrap;html=1;" vertex="1" parent="1">
          <mxGeometry x="543" y="470" width="160" height="60" as="geometry" />
        </mxCell>
        <mxCell id="sAu2E2ja9TYU6doFKG8g-8" value="ตรวจสอบค่า num (switch-case)" style="rectangle;whiteSpace=wrap;html=1;" vertex="1" parent="1">
          <mxGeometry x="543" y="570" width="160" height="60" as="geometry" />
        </mxCell>
        <mxCell id="sAu2E2ja9TYU6doFKG8g-9" value="num == 1 → แสดง &quot;one&quot;&#xa;num == 2 → แสดง &quot;two&quot;&#xa;...&#xa;num == 19 → แสดง &quot;nineteen&quot;&#xa;อื่นๆ → แสดง &quot;Number out of range!&quot;" style="rectangle;whiteSpace=wrap;html=1;" vertex="1" parent="1">
          <mxGeometry x="523" y="670" width="200" height="200" as="geometry" />
        </mxCell>
        <mxCell id="sAu2E2ja9TYU6doFKG8g-10" value="Stop" style="ellipse;whiteSpace=wrap;html=1;" vertex="1" parent="1">
          <mxGeometry x="563" y="910" width="120" height="60" as="geometry" />
        </mxCell>
        <mxCell id="sAu2E2ja9TYU6doFKG8g-11" edge="1" parent="1" source="sAu2E2ja9TYU6doFKG8g-1" target="sAu2E2ja9TYU6doFKG8g-2">
          <mxGeometry relative="1" as="geometry" />
        </mxCell>
        <mxCell id="sAu2E2ja9TYU6doFKG8g-12" edge="1" parent="1" source="sAu2E2ja9TYU6doFKG8g-2" target="sAu2E2ja9TYU6doFKG8g-3">
          <mxGeometry relative="1" as="geometry" />
        </mxCell>
        <mxCell id="sAu2E2ja9TYU6doFKG8g-13" edge="1" parent="1" source="sAu2E2ja9TYU6doFKG8g-3" target="sAu2E2ja9TYU6doFKG8g-4">
          <mxGeometry relative="1" as="geometry" />
        </mxCell>
        <mxCell id="sAu2E2ja9TYU6doFKG8g-14" value="False" edge="1" parent="1" source="sAu2E2ja9TYU6doFKG8g-4" target="sAu2E2ja9TYU6doFKG8g-5">
          <mxGeometry x="0.1" y="-0.3" relative="1" as="geometry">
            <mxPoint as="offset" />
          </mxGeometry>
        </mxCell>
        <mxCell id="sAu2E2ja9TYU6doFKG8g-15" edge="1" parent="1" source="sAu2E2ja9TYU6doFKG8g-5" target="sAu2E2ja9TYU6doFKG8g-6">
          <mxGeometry relative="1" as="geometry" />
        </mxCell>
        <mxCell id="sAu2E2ja9TYU6doFKG8g-16" value="True" edge="1" parent="1" source="sAu2E2ja9TYU6doFKG8g-4" target="sAu2E2ja9TYU6doFKG8g-7">
          <mxGeometry x="0.2318" y="6" relative="1" as="geometry">
            <mxPoint as="offset" />
          </mxGeometry>
        </mxCell>
        <mxCell id="sAu2E2ja9TYU6doFKG8g-17" edge="1" parent="1" source="sAu2E2ja9TYU6doFKG8g-7" target="sAu2E2ja9TYU6doFKG8g-8">
          <mxGeometry relative="1" as="geometry" />
        </mxCell>
        <mxCell id="sAu2E2ja9TYU6doFKG8g-18" edge="1" parent="1" source="sAu2E2ja9TYU6doFKG8g-8" target="sAu2E2ja9TYU6doFKG8g-9">
          <mxGeometry relative="1" as="geometry" />
        </mxCell>
        <mxCell id="sAu2E2ja9TYU6doFKG8g-19" edge="1" parent="1" source="sAu2E2ja9TYU6doFKG8g-9" target="sAu2E2ja9TYU6doFKG8g-10">
          <mxGeometry relative="1" as="geometry" />
        </mxCell>
      </root>
    </mxGraphModel>
  </diagram>
</mxfile>
